<svg width="24" height="24" viewBox="0 0 24 24" fill="none" xmlns="http://www.w3.org/2000/svg">
<path d="M11.6979 24C17.9974 24 23.1042 18.6274 23.1042 12C23.1042 5.37258 17.9974 0 11.6979 0C5.39844 0 0.291687 5.37258 0.291687 12C0.291687 18.6274 5.39844 24 11.6979 24Z" fill="#3BB979"/>
<path d="M16.768 12.6699C16.768 15.9999 14.5495 17.6699 11.9137 18.6299C11.7759 18.6799 11.6257 18.6799 11.4888 18.6299C8.84634 17.6699 6.62878 15.9999 6.62878 12.6699V8C6.62878 7.82 6.69531 7.65003 6.81413 7.53003C6.93294 7.40003 7.09453 7.33008 7.26277 7.33008C8.52982 7.33008 10.1143 6.53002 11.2169 5.52002C11.351 5.40002 11.5221 5.33008 11.6979 5.33008C11.8747 5.33008 12.0458 5.40002 12.1798 5.52002C13.2891 6.54002 14.8669 7.33008 16.134 7.33008C16.3022 7.33008 16.4629 7.40003 16.5817 7.53003C16.7005 7.65003 16.768 7.82 16.768 8V12.6699Z" stroke="#E5E7EB" stroke-linecap="round" stroke-linejoin="round"/>
<path d="M9.79688 12L11.0639 13.3301L13.599 10.6699" stroke="#E5E7EB" stroke-linecap="round" stroke-linejoin="round"/>
</svg>
