<svg width="24" height="24" viewBox="0 0 24 24" fill="none" xmlns="http://www.w3.org/2000/svg">
<path d="M11.6979 24C17.9974 24 23.1042 18.6274 23.1042 12C23.1042 5.37258 17.9974 0 11.6979 0C5.39844 0 0.291687 5.37258 0.291687 12C0.291687 18.6274 5.39844 24 11.6979 24Z" fill="#3B82F6"/>
<path d="M11.6979 10.96V13.5M11.6979 5.5V7.5M16.1331 12.8301V8.83008C16.1331 8.48008 16 8.13989 15.7624 7.88989C15.5247 7.63989 15.2025 7.5 14.866 7.5H8.52889C8.19336 7.5 7.87113 7.63989 7.6335 7.88989C7.39492 8.13989 7.26184 8.48008 7.26184 8.83008V12.8301" stroke="#E5E7EB" stroke-linecap="round" stroke-linejoin="round"/>
<path d="M16.3745 17.5C17.056 16.29 17.4115 14.91 17.4011 13.5L12.2122 11.0701C12.0506 11.0001 11.8757 10.96 11.6979 10.96C11.5211 10.96 11.3453 11.0001 11.1837 11.0701L5.99482 13.5C5.96535 15.4 6.59935 17.2399 7.77514 18.6699" stroke="#E5E7EB" stroke-linecap="round" stroke-linejoin="round"/>
<path d="M5.36078 18.1699C5.74099 18.4999 6.1212 18.8301 6.9453 18.8301C8.52887 18.8301 8.52886 17.5 10.1134 17.5C10.9375 17.5 11.3177 17.8299 11.6979 18.1699C12.0781 18.4999 12.4583 18.8301 13.2815 18.8301C14.866 18.8301 14.866 17.5 16.4505 17.5C17.2737 17.5 17.6539 17.8299 18.0341 18.1699" stroke="#E5E7EB" stroke-linecap="round" stroke-linejoin="round"/>
</svg>
