<svg width="24" height="24" viewBox="0 0 24 24" fill="none" xmlns="http://www.w3.org/2000/svg">
<path d="M11.6979 24C17.9974 24 23.1042 18.6274 23.1042 12C23.1042 5.37258 17.9974 0 11.6979 0C5.39844 0 0.291687 5.37258 0.291687 12C0.291687 18.6274 5.39844 24 11.6979 24Z" fill="#6A3BF6"/>
<path d="M16.768 12.6699C16.768 15.9999 14.5495 17.6699 11.9137 18.6299C11.7759 18.6799 11.6257 18.6799 11.4888 18.6299C8.84634 17.6699 6.62878 15.9999 6.62878 12.6699V8C6.62878 7.82 6.69531 7.65003 6.81413 7.53003C6.93294 7.40003 7.09453 7.33008 7.26277 7.33008C8.52982 7.33008 10.1143 6.53002 11.2169 5.52002C11.351 5.40002 11.5221 5.33008 11.6979 5.33008C11.8747 5.33008 12.0458 5.40002 12.1798 5.52002C13.2891 6.54002 14.8669 7.33008 16.134 7.33008C16.3022 7.33008 16.4629 7.40003 16.5817 7.53003C16.7005 7.65003 16.768 7.82 16.768 8V12.6699Z" stroke="#E5E7EB" stroke-linecap="round" stroke-linejoin="round"/>
<path d="M8.1344 16.6101C8.40435 15.8401 8.89101 15.18 9.52881 14.72C10.1657 14.25 10.9232 14 11.6989 14C12.4754 14 13.232 14.25 13.8698 14.72C14.5067 15.18 14.9924 15.8401 15.2623 16.6101" stroke="#E5E7EB" stroke-linecap="round" stroke-linejoin="round"/>
<path d="M11.6988 14C13.098 14 14.2329 12.8101 14.2329 11.3301C14.2329 9.86008 13.098 8.66992 11.6988 8.66992C10.2987 8.66992 9.16376 9.86008 9.16376 11.3301C9.16376 12.8101 10.2987 14 11.6988 14Z" stroke="#E5E7EB" stroke-linecap="round" stroke-linejoin="round"/>
</svg>
